<svg xmlns="http://www.w3.org/2000/svg" width="310" height="90" viewBox="0 0 410 120">
    <defs id="SvgjsDefs1155">
        <linearGradient id="SvgjsLinearGradient1162">
            <stop id="SvgjsStop1163" stop-color="#7d141d" offset="0"></stop>
            <stop id="SvgjsStop1164" stop-color="#ff1e27" offset="1"></stop>
        </linearGradient>
    </defs>
    <g id="SvgjsG1156" transform="matrix(1,0,0,1,0,0)" fill="#000000">
        <rect xmlns="http://www.w3.org/2000/svg" width="410" height="120" rx="10" ry="10"></rect>
    </g>
    <g id="SvgjsG1157"
       transform="matrix(0.8287711823957807,0,0,0.8287711823957807,18.334169338504914,18.364834514830704)"
       fill="url(#SvgjsLinearGradient1162)">
        <path xmlns="http://www.w3.org/2000/svg"
              d="M19.572,37.4l26.893,26.893c0.975,0.975,2.255,1.462,3.535,1.462s2.561-0.487,3.535-1.462L80.428,37.4  c1.949-1.949,1.949-5.122,0-7.071L53.536,3.438c-0.944-0.944-2.2-1.465-3.536-1.465s-2.591,0.521-3.535,1.465L19.572,30.329  C17.623,32.278,17.623,35.451,19.572,37.4z M22.4,33.157L49.293,6.266h0C49.548,6.011,49.845,5.973,50,5.973  s0.452,0.038,0.707,0.293l26.892,26.892c0.39,0.39,0.39,1.025,0,1.415L50.707,61.465c-0.39,0.389-1.025,0.388-1.414,0L22.401,34.572  C22.011,34.183,22.011,33.547,22.4,33.157z"></path>
        <path xmlns="http://www.w3.org/2000/svg"
              d="M96.505,53.594c1.98-1.981,1.98-5.206,0-7.188l-5.402-5.402c-0.96-0.96-2.236-1.489-3.594-1.489s-2.634,0.529-3.594,1.489h0  L50.765,74.151c-0.408,0.408-1.122,0.408-1.531,0L16.086,41.004c-0.96-0.96-2.236-1.489-3.594-1.489s-2.634,0.529-3.594,1.489  l-5.403,5.402c-1.98,1.981-1.98,5.206,0,7.188l42.91,42.91c0.96,0.96,2.236,1.489,3.594,1.489s2.634-0.529,3.594-1.489  L96.505,53.594z M49.234,93.676l-42.91-42.91c-0.422-0.422-0.422-1.109,0-1.531l5.403-5.402c0.204-0.204,0.476-0.317,0.765-0.317  s0.561,0.113,0.766,0.317l33.148,33.147c0.96,0.96,2.236,1.489,3.594,1.489s2.634-0.529,3.594-1.489l33.148-33.147h0  c0.408-0.408,1.122-0.408,1.531,0l5.402,5.402c0.422,0.422,0.422,1.109,0,1.531l-42.911,42.91  C50.357,94.084,49.644,94.084,49.234,93.676z"></path>
    </g>
    <g id="SvgjsG1158"
       transform="matrix(4.957410979748335,0,0,4.957410979748335,111.7260779733924,-12.433950823867093)"
       fill="#ffffff">
        <path
                d="M4.017 17.619 l13.59 0 l0 2.3477 l-15.938 0 l0 -11.407 l2.3477 0 l0 9.0597 z M35.730000000000004 17.65 l0.040136 2.3242 l-1.1621 0.02002 c-0.015039 0.0002539 -1.0275 0.017129 -3.0076 0.017129 c-1.0032 0 -2.2546 -0.0044532 -3.7506 -0.017402 c-2.4132 -0.021054 -4.3428 -0.54212 -5.7348 -1.549 c-1.3835 -1.0007 -2.1454 -2.4562 -2.1454 -4.0986 c0 -1.6413 0.76854 -3.1002 2.164 -4.1074 c1.383 -0.99846 3.3616 -1.531 5.7218 -1.5402 c4.441 -0.017129 6.719 0.00027344 6.7416 0.00041016 l1.1622 0.0091602 l-0.01832 2.3246 l-1.1622 -0.0091602 c-0.022364 -0.0002539 -2.2892 -0.01752 -6.7144 -0.00039062 c-3.4358 0.01334 -5.5702 1.2866 -5.5702 3.3232 c0 0.90194 0.39812 1.6473 1.1831 2.215 c0.97936 0.70836 2.4984 1.0916 4.3926 1.1081 c4.4144 0.038574 6.6758 0.00089844 6.698 0.00050782 z M53.319 8.662 l2.9056 0 l-9.017 12.023 l-9.018 -12.023 l2.9058 0 l6.1122 8.1492 z"></path>
    </g>
</svg>