<svg xmlns="http://www.w3.org/2000/svg" width="180" height="60" viewBox="0 0 50 120">
    <defs id="SvgjsDefs1155">
        <linearGradient id="SvgjsLinearGradient1162">
            <stop id="SvgjsStop1163" stop-color="#7d141d" offset="0"></stop>
            <stop id="SvgjsStop1164" stop-color="#ff1e27" offset="1"></stop>
        </linearGradient>
    </defs>
    <g id="SvgjsG1156" transform="matrix(1,0,0,1,0,0)" fill="#000000">
        <rect xmlns="http://www.w3.org/2000/svg" width="120" height="120" rx="10" ry="10"></rect>
    </g>
    <g id="SvgjsG1157"
       transform="matrix(0.8287711823957807,0,0,0.8287711823957807,18.334169338504914,18.364834514830704)"
       fill="url(#SvgjsLinearGradient1162)">
        <path xmlns="http://www.w3.org/2000/svg"
              d="M19.572,37.4l26.893,26.893c0.975,0.975,2.255,1.462,3.535,1.462s2.561-0.487,3.535-1.462L80.428,37.4  c1.949-1.949,1.949-5.122,0-7.071L53.536,3.438c-0.944-0.944-2.2-1.465-3.536-1.465s-2.591,0.521-3.535,1.465L19.572,30.329  C17.623,32.278,17.623,35.451,19.572,37.4z M22.4,33.157L49.293,6.266h0C49.548,6.011,49.845,5.973,50,5.973  s0.452,0.038,0.707,0.293l26.892,26.892c0.39,0.39,0.39,1.025,0,1.415L50.707,61.465c-0.39,0.389-1.025,0.388-1.414,0L22.401,34.572  C22.011,34.183,22.011,33.547,22.4,33.157z"></path>
        <path xmlns="http://www.w3.org/2000/svg"
              d="M96.505,53.594c1.98-1.981,1.98-5.206,0-7.188l-5.402-5.402c-0.96-0.96-2.236-1.489-3.594-1.489s-2.634,0.529-3.594,1.489h0  L50.765,74.151c-0.408,0.408-1.122,0.408-1.531,0L16.086,41.004c-0.96-0.96-2.236-1.489-3.594-1.489s-2.634,0.529-3.594,1.489  l-5.403,5.402c-1.98,1.981-1.98,5.206,0,7.188l42.91,42.91c0.96,0.96,2.236,1.489,3.594,1.489s2.634-0.529,3.594-1.489  L96.505,53.594z M49.234,93.676l-42.91-42.91c-0.422-0.422-0.422-1.109,0-1.531l5.403-5.402c0.204-0.204,0.476-0.317,0.765-0.317  s0.561,0.113,0.766,0.317l33.148,33.147c0.96,0.96,2.236,1.489,3.594,1.489s2.634-0.529,3.594-1.489l33.148-33.147h0  c0.408-0.408,1.122-0.408,1.531,0l5.402,5.402c0.422,0.422,0.422,1.109,0,1.531l-42.911,42.91  C50.357,94.084,49.644,94.084,49.234,93.676z"></path>
    </g>
</svg>